#!OML:ASF H:\ManfredObstacles\Project 1\Capture day 2\Session 1\male.ASF
:FULLY-SPECIFIED
:DEGREES
270
root 1.61014 10.4875 10.7863 -152.89 -1.56996 -177.329
lowerback 48.6156 4.6469 1.52156
upperback 17.4557 -1.56598 -1.78976
thorax -0.967612 -3.12235 -2.00699
lowerneck -34.4634 1.22775 1.87476
upperneck 23.2146 -0.825348 4.39163
head 13.5331 0.459093 1.28605
rclavicle -1.59028e-014 -3.18552e-014
rhumerus 27.9179 15.991 -75.4369
rradius 22.318
rwrist 34.0411
rhand -23.8423 -9.7859
rfingers 7.12502
rthumb 2.62965 -39.7494
lclavicle -1.59028e-014 -3.18552e-014
lhumerus 28.9364 -9.63509 69.6114
lradius 19.1248
lwrist -41.7563
lhand -23.0165 18.1488
lfingers 7.12502
lthumb 3.42715 48.101
rfemur -89.0037 6.88227 29.6543
rtibia 140.753
rfoot -20.7677 -28.7179
rtoes -27.8925
lfemur -98.4808 1.40639 -26.1225
ltibia 117.208
lfoot -9.33586 35.0285
ltoes -10.7679
271
root 1.59526 10.4461 10.7096 -153.865 -1.54091 -177.24
lowerback 48.6092 4.74362 1.54228
upperback 17.8499 -1.68664 -1.56672
thorax -0.522968 -3.27715 -1.761
lowerneck -34.4198 1.26066 1.66786
upperneck 23.2999 -0.648799 4.323
head 13.5554 0.507606 1.32979
rclavicle 7.95139e-015 -4.65902e-014
rhumerus 27.7861 16.4228 -74.62
rradius 22.9567
rwrist 34.3977
rhand -22.5342 -8.73301
rfingers 7.12502
rthumb 3.89289 -38.6772
lclavicle 7.95139e-015 -4.65902e-014
lhumerus 28.5717 -8.05332 70.6939
lradius 18.7753
lwrist -43.3584
lhand -22.1537 17.2936
lfingers 7.12502
lthumb 4.26032 47.2307
rfemur -90.5435 6.93713 29.5597
rtibia 139.96
rfoot -21.155 -29.5333
rtoes -27.6081
lfemur -97.2973 1.70803 -26.2189
ltibia 118.014
lfoot -9.73168 35.2815
ltoes -10.9815
272
root 1.58108 10.4039 10.6322 -154.854 -1.55455 -177.14
lowerback 48.4285 4.64484 1.657
upperback 18.3833 -2.07215 -1.47988
thorax 0.0886544 -3.55641 -1.62514
lowerneck -34.4114 1.40695 1.30792
upperneck 23.323 -0.279389 4.37903
head 13.5539 0.641925 1.4878
rclavicle -3.65764e-014 6.21202e-015
rhumerus 28.002 17.2987 -73.7544
rradius 23.6116
rwrist 34.5386
rhand -21.1112 -7.66179
rfingers 7.12502
rthumb 5.26701 -37.5763
lclavicle -3.65764e-014 6.21202e-015
lhumerus 28.2609 -5.97357 71.5989
lradius 18.4474
lwrist -45.0217
lhand -21.1964 16.382
lfingers 7.12502
lthumb 5.1847 46.2986
rfemur -92.0577 6.88939 29.4954
rtibia 138.875
rfoot -21.5189 -30.25
rtoes -27.7772
lfemur -96.1133 2.0352 -26.3506
ltibia 118.832
lfoot -10.1757 35.5272
ltoes -11.0961
273
root 1.56755 10.3605 10.554 -155.838 -1.62008 -177.032
lowerback 48.2557 4.33079 1.90531
upperback 18.9012 -2.67461 -1.57056
thorax 0.66881 -3.91545 -1.66983
lowerneck -34.4727 1.64964 0.909688
upperneck 23.4012 0.195721 4.54613
head 13.5837 0.834648 1.72075
rclavicle 1.98785e-014 6.31141e-015
rhumerus 28.368 18.483 -72.9521
rradius 24.2511
rwrist 34.4495
rhand -19.658 -6.55694
rfingers 7.12502
rthumb 6.66998 -36.4319
lclavicle 1.98785e-014 6.31141e-015
lhumerus 27.903 -3.66133 72.2481
lradius 18.1883
lwrist -46.5817
lhand -20.1237 15.4246
lfingers 7.12502
lthumb 6.22036 45.3132
rfemur -93.5257 6.74369 29.4617
rtibia 137.548
rfoot -21.9068 -30.8366
rtoes -28.0846
lfemur -94.9605 2.36542 -26.5064
ltibia 119.669
lfoot -10.6057 35.7624
ltoes -11.1567
274
root 1.55475 10.3157 10.475 -156.815 -1.73565 -176.926
lowerback 47.0538 4.20959 2.09675
upperback 20.2673 -3.12092 -1.45392
thorax 1.35974 -4.21507 -1.55415
lowerneck -34.3984 1.64585 0.649605
upperneck 23.4179 0.71606 4.49557
head 13.559 1.12287 1.8726
rclavicle -3.18055e-015 -2.98177e-015
rhumerus 28.7441 19.6215 -71.7121
rradius 24.9024
rwrist 34.0121
rhand -18.2036 -5.46365
rfingers 7.12502
rthumb 8.07382 -35.2894
lclavicle -3.18055e-015 -2.98177e-015
lhumerus 27.6423 -1.42935 73.212
lradius 17.9535
lwrist -48.1365
lhand -18.9659 14.4095
lfingers 7.12502
lthumb 7.33806 44.2622
rfemur -94.9431 6.50222 29.4501
rtibia 136.017
rfoot -22.3518 -31.2409
rtoes -28.1972
lfemur -93.8512 2.6827 -26.6751
ltibia 120.525
lfoot -10.9785 35.9708
ltoes -11.1867
